<svg width="171" height="57" viewBox="0 0 171 57" fill="none" xmlns="http://www.w3.org/2000/svg">
<path d="M4.08002 29.63L11.02 8.29999C11.28 8.25999 11.55 8.22999 11.85 8.20999C12.15 8.18999 12.45 8.17999 12.77 8.17999C13.05 8.17999 13.33 8.18999 13.63 8.20999C13.93 8.22999 14.21 8.25999 14.49 8.29999L21.4 29.62M7.83002 26.99H17.41L12.66 11.18L7.83002 26.99Z" fill="url(#paint0_linear_27_83)"/>
<path d="M145.37 29.63L152.31 8.31C152.57 8.27 152.84 8.24 153.14 8.22C153.44 8.2 153.74 8.19 154.06 8.19C154.34 8.19 154.62 8.2 154.92 8.22C155.22 8.24 155.5 8.27 155.78 8.31L162.69 29.63M149.11 26.99H158.69L153.94 11.18L149.11 26.99Z" fill="url(#paint1_linear_27_83)"/>
<path d="M24.51 8.29999C24.73 8.25999 24.96 8.22999 25.21 8.20999C25.46 8.18999 25.72 8.17999 26 8.17999C26.26 8.17999 26.51 8.18999 26.77 8.20999C27.03 8.22999 27.27 8.25999 27.51 8.29999V26.95H35.87C35.91 27.17 35.93 27.39 35.94 27.63C35.95 27.87 35.95 28.08 35.95 28.28C35.95 28.76 35.92 29.2 35.86 29.61H24.51V8.29999Z" fill="white"/>
<path d="M38.66 26.39C39.31 26.63 39.99 26.83 40.71 27.01C41.42 27.19 42.29 27.28 43.32 27.28C44.94 27.28 46.15 26.95 46.95 26.29C47.75 25.63 48.15 24.73 48.15 23.61C48.15 23.06 48.07 22.58 47.9 22.19C47.73 21.79 47.48 21.45 47.14 21.17C46.8 20.88 46.38 20.62 45.88 20.38C45.38 20.14 44.79 19.89 44.11 19.61L42.42 18.93C41.85 18.69 41.32 18.43 40.85 18.14C40.37 17.85 39.96 17.5 39.62 17.09C39.27 16.68 39 16.2 38.8 15.65C38.6 15.11 38.5 14.46 38.5 13.71C38.5 11.91 39.11 10.5 40.34 9.48001C41.57 8.46001 43.29 7.95001 45.5 7.95001C46.45 7.95001 47.35 8.03001 48.2 8.19001C49.05 8.35001 49.8 8.55001 50.45 8.78001C50.35 9.61001 50.13 10.43 49.8 11.24C49.27 11.04 48.65 10.86 47.95 10.71C47.25 10.55 46.45 10.47 45.56 10.47C44.31 10.47 43.36 10.72 42.68 11.23C42.01 11.73 41.67 12.49 41.67 13.5C41.67 13.91 41.75 14.29 41.92 14.61C42.09 14.94 42.31 15.22 42.59 15.47C42.87 15.72 43.19 15.94 43.57 16.14C43.95 16.34 44.34 16.52 44.76 16.67L46.42 17.32C47.21 17.64 47.91 17.97 48.53 18.31C49.14 18.66 49.67 19.06 50.1 19.53C50.54 19.99 50.87 20.54 51.09 21.18C51.32 21.81 51.43 22.55 51.43 23.4C51.43 25.44 50.73 27.04 49.32 28.22C47.92 29.4 45.95 29.98 43.42 29.98C42.81 29.98 42.25 29.96 41.76 29.92C41.27 29.88 40.81 29.82 40.38 29.74C39.95 29.66 39.54 29.56 39.15 29.44C38.75 29.32 38.35 29.19 37.93 29.05C37.97 28.62 38.06 28.17 38.2 27.72C38.35 27.27 38.5 26.83 38.66 26.39Z" fill="white"/>
<path d="M55.35 8.29999C55.59 8.25999 55.83 8.22999 56.09 8.20999C56.35 8.18999 56.6 8.17999 56.86 8.17999C57.12 8.17999 57.37 8.18999 57.63 8.20999C57.89 8.22999 58.13 8.25999 58.37 8.29999V29.62C58.13 29.66 57.89 29.69 57.64 29.71C57.39 29.73 57.13 29.74 56.85 29.74C56.59 29.74 56.33 29.73 56.06 29.71C55.79 29.69 55.55 29.66 55.33 29.62V8.29999H55.35Z" fill="white"/>
<path d="M84.86 8.30002C85.33 8.24002 85.85 8.21002 86.4 8.21002C86.93 8.21002 87.43 8.24002 87.88 8.30002V20.4C87.88 21.63 87.96 22.67 88.12 23.54C88.28 24.41 88.54 25.12 88.89 25.66C89.25 26.2 89.72 26.6 90.3 26.86C90.88 27.12 91.6 27.25 92.45 27.25C93.3 27.25 94.01 27.12 94.59 26.86C95.16 26.6 95.63 26.2 95.98 25.66C96.34 25.12 96.59 24.41 96.75 23.54C96.91 22.67 96.99 21.62 96.99 20.4V8.30002C97.48 8.24002 97.99 8.21002 98.5 8.21002C99.05 8.21002 99.57 8.24002 100.04 8.30002V20.93C100.04 22.35 99.91 23.63 99.64 24.76C99.37 25.89 98.94 26.84 98.34 27.61C97.74 28.38 96.95 28.97 95.98 29.37C95.01 29.78 93.83 29.98 92.45 29.98C91.07 29.98 89.89 29.78 88.92 29.37C87.95 28.96 87.17 28.38 86.56 27.61C85.96 26.84 85.52 25.89 85.25 24.76C84.98 23.63 84.85 22.36 84.85 20.93V8.30002H84.86Z" fill="white"/>
<path d="M105.06 8.29999H116.77C116.83 8.69999 116.86 9.12999 116.86 9.60999C116.86 9.82999 116.85 10.05 116.84 10.29C116.83 10.53 116.81 10.75 116.77 10.94H108.08V17.05H115.02C115.06 17.25 115.09 17.46 115.11 17.69C115.13 17.92 115.14 18.14 115.14 18.36C115.14 18.58 115.13 18.8 115.11 19.04C115.09 19.28 115.06 19.5 115.02 19.69H108.08V26.98H117.01C117.07 27.38 117.1 27.81 117.1 28.28C117.1 28.5 117.09 28.72 117.08 28.96C117.07 29.2 117.04 29.41 117.01 29.61H105.06V8.29999Z" fill="white"/>
<path d="M120.95 8.29999C121.19 8.25999 121.43 8.22999 121.69 8.20999C121.95 8.18999 122.2 8.17999 122.46 8.17999C122.72 8.17999 122.97 8.18999 123.23 8.20999C123.49 8.22999 123.73 8.25999 123.97 8.29999V29.62C123.73 29.66 123.49 29.69 123.24 29.71C122.99 29.73 122.73 29.74 122.45 29.74C122.19 29.74 121.93 29.73 121.66 29.71C121.39 29.69 121.15 29.66 120.93 29.62V8.29999H120.95Z" fill="white"/>
<path d="M129.26 8.27001C129.69 8.23001 130.09 8.19001 130.45 8.15001C130.81 8.11001 131.16 8.08001 131.5 8.05001C131.85 8.02001 132.21 8.00001 132.58 7.98001C132.96 7.96001 133.37 7.95001 133.83 7.95001C134.84 7.95001 135.84 8.05001 136.83 8.25001C137.82 8.45001 138.7 8.79001 139.47 9.29001C140.24 9.78001 140.87 10.45 141.35 11.29C141.83 12.13 142.08 13.19 142.08 14.48C142.08 15.25 141.95 15.95 141.69 16.59C141.43 17.22 141.11 17.79 140.71 18.28C140.31 18.77 139.86 19.2 139.36 19.57C138.86 19.94 138.37 20.24 137.89 20.47L137.53 20.65L143.73 29.64C143.2 29.7 142.59 29.73 141.92 29.73C141.39 29.73 140.85 29.7 140.32 29.64L133.5 19.76V19.64L133.74 19.58C134.27 19.44 134.84 19.25 135.43 19.02C136.02 18.78 136.57 18.47 137.08 18.09C137.58 17.7 138 17.24 138.34 16.7C138.68 16.16 138.84 15.5 138.84 14.73C138.84 13.31 138.42 12.25 137.58 11.56C136.74 10.87 135.61 10.52 134.18 10.52C133.84 10.52 133.53 10.53 133.25 10.55C132.96 10.57 132.64 10.6 132.29 10.64V29.65C132.07 29.67 131.83 29.69 131.56 29.71C131.29 29.73 131.04 29.74 130.8 29.74C130.56 29.74 130.31 29.74 130.03 29.73C129.75 29.72 129.5 29.7 129.26 29.66V8.27001Z" fill="white"/>
<path d="M78.56 26.83C79.28 25.86 79.82 24.72 80.17 23.4C80.53 22.06 80.7 20.58 80.7 18.98C80.7 17.38 80.52 15.91 80.17 14.56C79.81 13.22 79.27 12.05 78.52 11.08C77.78 10.1 76.84 9.34001 75.72 8.78001C74.59 8.23001 73.26 7.95001 71.72 7.95001C70.18 7.95001 68.84 8.23001 67.72 8.78001C66.59 9.33001 65.66 10.1 64.92 11.08C64.18 12.06 63.63 13.22 63.26 14.56C62.89 15.9 62.71 17.38 62.71 18.98C62.71 20.58 62.89 22.05 63.26 23.4C63.63 24.74 64.18 25.91 64.92 26.88C65.66 27.86 66.6 28.62 67.72 29.16C68.85 29.7 70.18 29.98 71.72 29.98C73.26 29.98 74.6 29.71 75.72 29.16C76.07 28.99 76.39 28.8 76.7 28.59L78.39 31.14C78.77 31.72 79.56 31.88 80.14 31.49C80.43 31.3 80.62 31.01 80.68 30.69C80.74 30.37 80.69 30.03 80.49 29.74L78.56 26.83ZM78.17 19.61C77.93 19.64 77.71 19.78 77.59 19.99C77.49 20.17 77.35 20.31 77.18 20.42C76.75 20.68 76.2 20.63 75.81 20.32L74.81 20.99L76.7 23.84C76.7 23.84 76.56 24.31 76.12 24.95C75.8 25.42 75.15 26.06 75.15 26.06L72.71 22.38L71.49 23.19C71.54 23.38 71.55 23.58 71.51 23.77C71.45 24.05 71.3 24.31 71.05 24.49C70.89 24.61 70.69 24.68 70.49 24.7C70.25 24.73 70.03 24.87 69.91 25.08C69.81 25.25 69.67 25.4 69.5 25.51C68.96 25.84 68.24 25.67 67.88 25.14L65.26 21.19C64.9 20.65 65.03 19.92 65.55 19.56C65.71 19.44 65.91 19.37 66.11 19.35C66.35 19.32 66.57 19.18 66.69 18.97C66.79 18.79 66.93 18.65 67.1 18.54C67.53 18.28 68.08 18.33 68.47 18.64L72.79 15.77C72.65 15.3 72.82 14.77 73.23 14.47C73.4 14.35 73.59 14.28 73.79 14.26C74.03 14.23 74.25 14.09 74.37 13.88C74.47 13.71 74.61 13.56 74.78 13.45C75.32 13.12 76.04 13.29 76.4 13.82L79.02 17.77C79.2 18.05 79.26 18.38 79.19 18.68C79.13 18.96 78.98 19.23 78.73 19.4C78.56 19.51 78.37 19.59 78.17 19.61Z" fill="white"/>
<path d="M45.5193 42.0222L42.4598 50.4455H41.2093L44.7322 41.2033H45.5384L45.5193 42.0222ZM48.0838 50.4455L45.0179 42.0222L44.9988 41.2033H45.805L49.3406 50.4455H48.0838ZM47.9251 47.0241V48.027H42.7327V47.0241H47.9251ZM53.0794 50.4455H51.1497L51.1624 49.4489H53.0794C53.7396 49.4489 54.2897 49.3114 54.7298 49.0363C55.1699 48.757 55.5 48.3677 55.72 47.8683C55.9443 47.3648 56.0565 46.7766 56.0565 46.1037V45.5388C56.0565 45.0098 55.993 44.5401 55.866 44.1296C55.7391 43.7149 55.5529 43.3657 55.3074 43.0822C55.062 42.7945 54.7615 42.5765 54.4061 42.4284C54.0548 42.2803 53.6507 42.2062 53.1937 42.2062H51.1116V41.2033H53.1937C53.7988 41.2033 54.3511 41.3049 54.8504 41.508C55.3498 41.7069 55.7793 41.9968 56.139 42.3776C56.5029 42.7543 56.7822 43.2113 56.9769 43.7487C57.1715 44.2819 57.2689 44.8828 57.2689 45.5515V46.1037C57.2689 46.7723 57.1715 47.3753 56.9769 47.9128C56.7822 48.446 56.5008 48.9009 56.1326 49.2775C55.7687 49.6542 55.3286 49.944 54.8123 50.1472C54.3003 50.346 53.7226 50.4455 53.0794 50.4455ZM51.8035 41.2033V50.4455H50.5784V41.2033H51.8035ZM61.9534 49.0427L64.6766 41.2033H66.0032L62.5818 50.4455H61.636L61.9534 49.0427ZM59.408 41.2033L62.1058 49.0427L62.4422 50.4455H61.4964L58.0814 41.2033H59.408ZM74.2742 45.5324V46.1164C74.2742 46.8104 74.1875 47.4325 74.014 47.9826C73.8405 48.5327 73.5908 49.0003 73.265 49.3854C72.9391 49.7705 72.5477 50.0646 72.0906 50.2678C71.6378 50.4709 71.13 50.5724 70.5672 50.5724C70.0213 50.5724 69.5198 50.4709 69.0628 50.2678C68.61 50.0646 68.2165 49.7705 67.8821 49.3854C67.5521 49.0003 67.296 48.5327 67.1141 47.9826C66.9321 47.4325 66.8411 46.8104 66.8411 46.1164V45.5324C66.8411 44.8384 66.93 44.2184 67.1077 43.6725C67.2897 43.1224 67.5457 42.6548 67.8758 42.2697C68.2059 41.8804 68.5973 41.5842 69.0501 41.381C69.5071 41.1779 70.0086 41.0764 70.5545 41.0764C71.1173 41.0764 71.6251 41.1779 72.0779 41.381C72.535 41.5842 72.9264 41.8804 73.2523 42.2697C73.5823 42.6548 73.8341 43.1224 74.0076 43.6725C74.1854 44.2184 74.2742 44.8384 74.2742 45.5324ZM73.0618 46.1164V45.5197C73.0618 44.9696 73.0047 44.4829 72.8904 44.0598C72.7804 43.6366 72.6175 43.2811 72.4017 42.9933C72.1859 42.7056 71.9214 42.4877 71.6082 42.3395C71.2993 42.1914 70.9481 42.1174 70.5545 42.1174C70.1736 42.1174 69.8288 42.1914 69.5198 42.3395C69.2151 42.4877 68.9528 42.7056 68.7327 42.9933C68.5169 43.2811 68.3498 43.6366 68.2313 44.0598C68.1128 44.4829 68.0535 44.9696 68.0535 45.5197V46.1164C68.0535 46.6708 68.1128 47.1616 68.2313 47.5891C68.3498 48.0122 68.519 48.3698 68.7391 48.6618C68.9634 48.9496 69.2278 49.1675 69.5325 49.3156C69.8415 49.4637 70.1863 49.5378 70.5672 49.5378C70.965 49.5378 71.3183 49.4637 71.6273 49.3156C71.9362 49.1675 72.1964 48.9496 72.408 48.6618C72.6238 48.3698 72.7868 48.0122 72.8968 47.5891C73.0068 47.1616 73.0618 46.6708 73.0618 46.1164ZM81.6883 47.5065H82.907C82.8436 48.0905 82.6764 48.6131 82.4056 49.0744C82.1347 49.5357 81.7518 49.9017 81.2567 50.1725C80.7615 50.4391 80.1437 50.5724 79.4031 50.5724C78.8615 50.5724 78.3685 50.4709 77.9241 50.2678C77.484 50.0646 77.1053 49.7769 76.7879 49.4045C76.4705 49.0279 76.2251 48.5772 76.0516 48.0524C75.8823 47.5235 75.7977 46.9352 75.7977 46.2878V45.3674C75.7977 44.7199 75.8823 44.1338 76.0516 43.6091C76.2251 43.0801 76.4726 42.6273 76.7943 42.2507C77.1201 41.874 77.5115 41.5842 77.9686 41.381C78.4256 41.1779 78.9398 41.0764 79.511 41.0764C80.2093 41.0764 80.7996 41.2075 81.282 41.4699C81.7645 41.7323 82.139 42.0962 82.4056 42.5617C82.6764 43.023 82.8436 43.5583 82.907 44.1677H81.6883C81.629 43.736 81.519 43.3657 81.3582 43.0568C81.1974 42.7437 80.9689 42.5025 80.6727 42.3332C80.3764 42.1639 79.9892 42.0793 79.511 42.0793C79.1006 42.0793 78.7387 42.1576 78.4256 42.3141C78.1167 42.4707 77.8564 42.6929 77.6448 42.9807C77.4375 43.2684 77.2809 43.6133 77.1751 44.0153C77.0693 44.4173 77.0164 44.8638 77.0164 45.3547V46.2878C77.0164 46.7406 77.063 47.1659 77.1561 47.5637C77.2534 47.9614 77.3994 48.3106 77.5941 48.611C77.7887 48.9115 78.0363 49.1485 78.3367 49.322C78.6372 49.4912 78.9927 49.5759 79.4031 49.5759C79.9236 49.5759 80.3384 49.4933 80.6473 49.3283C80.9562 49.1633 81.1889 48.9263 81.3455 48.6174C81.5063 48.3085 81.6206 47.9382 81.6883 47.5065ZM87.9979 42.0222L84.9383 50.4455H83.6878L87.2108 41.2033H88.0169L87.9979 42.0222ZM90.5623 50.4455L87.4964 42.0222L87.4774 41.2033H88.2835L91.8192 50.4455H90.5623ZM90.4036 47.0241V48.027H85.2112V47.0241H90.4036ZM98.5604 47.5065H99.7791C99.7156 48.0905 99.5485 48.6131 99.2776 49.0744C99.0068 49.5357 98.6238 49.9017 98.1287 50.1725C97.6336 50.4391 97.0158 50.5724 96.2752 50.5724C95.7335 50.5724 95.2405 50.4709 94.7962 50.2678C94.3561 50.0646 93.9774 49.7769 93.66 49.4045C93.3426 49.0279 93.0971 48.5772 92.9236 48.0524C92.7544 47.5235 92.6697 46.9352 92.6697 46.2878V45.3674C92.6697 44.7199 92.7544 44.1338 92.9236 43.6091C93.0971 43.0801 93.3447 42.6273 93.6663 42.2507C93.9922 41.874 94.3836 41.5842 94.8406 41.381C95.2977 41.1779 95.8118 41.0764 96.3831 41.0764C97.0814 41.0764 97.6717 41.2075 98.1541 41.4699C98.6365 41.7323 99.011 42.0962 99.2776 42.5617C99.5485 43.023 99.7156 43.5583 99.7791 44.1677H98.5604C98.5011 43.736 98.3911 43.3657 98.2303 43.0568C98.0695 42.7437 97.841 42.5025 97.5447 42.3332C97.2485 42.1639 96.8613 42.0793 96.3831 42.0793C95.9726 42.0793 95.6108 42.1576 95.2977 42.3141C94.9887 42.4707 94.7285 42.6929 94.5169 42.9807C94.3095 43.2684 94.153 43.6133 94.0472 44.0153C93.9414 44.4173 93.8885 44.8638 93.8885 45.3547V46.2878C93.8885 46.7406 93.935 47.1659 94.0281 47.5637C94.1255 47.9614 94.2715 48.3106 94.4661 48.611C94.6608 48.9115 94.9083 49.1485 95.2088 49.322C95.5093 49.4912 95.8647 49.5759 96.2752 49.5759C96.7957 49.5759 97.2104 49.4933 97.5193 49.3283C97.8283 49.1633 98.061 48.9263 98.2176 48.6174C98.3784 48.3085 98.4927 47.9382 98.5604 47.5065ZM102.763 41.2033V50.4455H101.537V41.2033H102.763ZM108.526 42.0222L105.467 50.4455H104.216L107.739 41.2033H108.545L108.526 42.0222ZM111.091 50.4455L108.025 42.0222L108.006 41.2033H108.812L112.347 50.4455H111.091ZM110.932 47.0241V48.027H105.74V47.0241H110.932Z" fill="#F7F6F6"/>
<path d="M1.66 35.54H160.26" stroke="white" stroke-width="1.5" stroke-miterlimit="10"/>
<defs>
<linearGradient id="paint0_linear_27_83" x1="12.7379" y1="29.6252" x2="12.7379" y2="8.18429" gradientUnits="userSpaceOnUse">
<stop offset="0.005618" stop-color="#FCCB00"/>
<stop offset="0.2528" stop-color="#FFFAD2"/>
<stop offset="0.2988" stop-color="#FCF0C0"/>
<stop offset="0.3902" stop-color="#EED793"/>
<stop offset="0.5172" stop-color="#D8AF4B"/>
<stop offset="0.5955" stop-color="#C9961B"/>
<stop offset="0.815" stop-color="#EACE76"/>
<stop offset="0.8708" stop-color="#F2DD8E"/>
<stop offset="1" stop-color="#FFFAD2"/>
</linearGradient>
<linearGradient id="paint1_linear_27_83" x1="154.026" y1="29.6252" x2="154.026" y2="8.1843" gradientUnits="userSpaceOnUse">
<stop offset="0.005618" stop-color="#FCCB00"/>
<stop offset="0.2528" stop-color="#FFFAD2"/>
<stop offset="0.2988" stop-color="#FCF0C0"/>
<stop offset="0.3902" stop-color="#EED793"/>
<stop offset="0.5172" stop-color="#D8AF4B"/>
<stop offset="0.5955" stop-color="#C9961B"/>
<stop offset="0.815" stop-color="#EACE76"/>
<stop offset="0.8708" stop-color="#F2DD8E"/>
<stop offset="1" stop-color="#FFFAD2"/>
</linearGradient>
</defs>
</svg>
