<svg width="21" height="21" viewBox="0 0 21 21" fill="none" xmlns="http://www.w3.org/2000/svg">
<path d="M10.2913 2.40625H3.28125C3.04919 2.40625 2.82663 2.49844 2.66253 2.66253C2.49844 2.82663 2.40625 3.04919 2.40625 3.28125V17.7188C2.40625 17.9508 2.49844 18.1734 2.66253 18.3375C2.82663 18.5016 3.04919 18.5938 3.28125 18.5938H17.7188C17.9508 18.5938 18.1734 18.5016 18.3375 18.3375C18.5016 18.1734 18.5938 17.9508 18.5938 17.7188V3.28125C18.5938 3.04919 18.5016 2.82663 18.3375 2.66253C18.1734 2.49844 17.9508 2.40625 17.7188 2.40625H15.554" stroke="#621120" stroke-linecap="round" stroke-linejoin="round"/>
<path d="M15.2206 10.9628L18.5938 10.4431M2.40625 12.9377L11.0775 11.6011M7.83475 12.1012L6.1985 2.40621M12.9229 1.47302C11.8143 1.47302 10.7511 1.9134 9.96726 2.69728C9.18338 3.48116 8.743 4.54433 8.743 5.6529C8.743 8.92452 11.9424 12.8673 12.7711 13.8341C12.7949 13.862 12.8246 13.8844 12.8579 13.8996C12.8913 13.9149 12.9276 13.9227 12.9643 13.9224C13.001 13.9222 13.0372 13.914 13.0704 13.8984C13.1036 13.8828 13.133 13.8601 13.1565 13.832C13.9711 12.8625 17.1027 8.92234 17.1027 5.65334C17.1028 5.10439 16.9947 4.56081 16.7847 4.05363C16.5747 3.54646 16.2668 3.08562 15.8786 2.69743C15.4905 2.30925 15.0297 2.00132 14.5225 1.79124C14.0154 1.58115 13.4718 1.47302 12.9229 1.47302ZM12.9229 7.21521C12.614 7.21521 12.312 7.12361 12.0551 6.95199C11.7983 6.78037 11.5981 6.53643 11.4799 6.25104C11.3617 5.96564 11.3307 5.6516 11.391 5.34863C11.4513 5.04565 11.6 4.76735 11.8185 4.54892C12.0369 4.33049 12.3152 4.18174 12.6182 4.12147C12.9211 4.06121 13.2352 4.09214 13.5206 4.21035C13.806 4.32857 14.0499 4.52875 14.2215 4.7856C14.3931 5.04245 14.4848 5.34443 14.4848 5.65334C14.4848 5.85844 14.4444 6.06154 14.3659 6.25104C14.2874 6.44053 14.1723 6.61271 14.0273 6.75775C13.8823 6.90278 13.7101 7.01783 13.5206 7.09632C13.3311 7.17481 13.128 7.21521 12.9229 7.21521Z" stroke="#621120" stroke-linecap="round" stroke-linejoin="round"/>
</svg>
