<svg width="21" height="23" viewBox="0 0 21 23" fill="none" xmlns="http://www.w3.org/2000/svg">
<path d="M17.4329 7.92406C17.1137 7.96156 16.8211 8.14907 16.6616 8.41159C16.5286 8.63661 16.3424 8.81162 16.1163 8.94913C15.5445 9.27416 14.7998 9.21165 14.2945 8.82413L12.9647 9.64919L20.5313 20.3875C20.5313 20.3875 20.651 21.1501 19.6935 21.9001C19.0818 22.3877 17.752 22.1626 17.752 22.1626L10.1588 11.3993L8.5497 12.3994C8.61619 12.6369 8.62949 12.8869 8.5763 13.1244C8.49651 13.4745 8.29704 13.7995 7.96458 14.0245C7.75181 14.1745 7.48585 14.262 7.21989 14.287C6.90073 14.3245 6.60817 14.4996 6.4486 14.7621C6.31562 14.9746 6.12944 15.1621 5.90337 15.2996C5.18527 15.7121 4.22781 15.4996 3.74908 14.8371L0.264967 9.89921C-0.200468 9.23666 -0.0408899 8.31159 0.650613 7.86155C0.863383 7.71154 1.12935 7.62403 1.39531 7.59903C1.71446 7.56153 2.00702 7.38652 2.1666 7.124C2.29958 6.89898 2.48575 6.72397 2.71182 6.58646C3.28364 6.26143 4.01504 6.32394 4.53367 6.71146L10.2785 3.11119C10.0923 2.52365 10.3184 1.8611 10.8636 1.48607C11.0896 1.33606 11.3423 1.24855 11.6083 1.22355C11.9274 1.18605 12.22 1.01103 12.3796 0.748514C12.5125 0.535998 12.6987 0.348484 12.9248 0.210974C13.6429 -0.201558 14.6004 0.0109582 15.0791 0.673508L18.5632 5.61138C18.8026 5.96141 18.8823 6.37394 18.7893 6.74897C18.7095 7.09899 18.51 7.43652 18.1775 7.64904C17.9515 7.81155 17.6988 7.89906 17.4329 7.92406Z" fill="#621120"/>
</svg>
