<svg width="19" height="19" viewBox="0 0 19 19" fill="none" xmlns="http://www.w3.org/2000/svg">
<g clip-path="url(#clip0_27_119)">
<path d="M10.4646 0C7.8497 0 5.41137 1.17958 3.73937 3.28383C2.53999 4.79829 1.91062 6.66583 1.91062 8.59275V9.96946C1.91062 10.6772 1.41979 11.3454 0.436536 11.4047C0.200619 11.4245 0.00349419 11.5821 0.00349419 11.818C-0.0360891 12.4672 0.652661 13.6467 1.59633 14.5904C2.24549 15.2586 3.01183 15.7898 3.83833 16.2022C3.77718 16.5442 3.79181 16.8955 3.88118 17.2312C3.97054 17.5669 4.13247 17.8789 4.35554 18.1453C4.57861 18.4116 4.8574 18.6257 5.17224 18.7726C5.48707 18.9195 5.8303 18.9955 6.1777 18.9952C6.72366 18.9994 7.254 18.8131 7.67749 18.4685C8.10098 18.1239 8.39114 17.6425 8.49808 17.1071H10.4844C10.7401 18.4442 12.1358 19.3681 13.6305 18.8567C14.9288 18.4245 15.4988 16.9496 15.0262 15.7502C15.5456 15.4089 16.0327 15.0207 16.4812 14.5904C17.2813 13.7982 17.9159 12.8548 18.3481 11.8151C18.7803 10.7754 19.0014 9.66011 18.9987 8.53417C18.9987 6.25258 18.1137 4.10954 16.501 2.49771C14.894 0.906147 12.7263 0.00921892 10.4646 0ZM10.4646 0.963458C12.4897 0.963458 14.3968 1.75038 15.8321 3.18567C16.539 3.88897 17.0994 4.7255 17.4808 5.64683C17.8623 6.56816 18.0572 7.556 18.0543 8.55317C18.0574 9.55035 17.8628 10.5383 17.4816 11.4597C17.1005 12.3812 16.5403 13.2179 15.8337 13.9215C14.4071 15.3403 12.4782 16.1389 10.4662 16.1437H8.51866C8.40994 15.6076 8.12 15.1254 7.69758 14.7779C7.27517 14.4305 6.74602 14.239 6.19908 14.2357C5.80117 14.2356 5.40948 14.3344 5.05928 14.5234C4.70908 14.7123 4.41138 14.9853 4.19299 15.318V15.337C3.48185 14.9759 2.8368 14.4974 2.28508 13.9215C1.61691 13.2533 1.24324 12.6437 1.0857 12.251C1.5242 12.1464 1.92144 11.9132 2.22649 11.5813C2.6343 11.144 2.85947 10.5674 2.85587 9.96946V8.55317C2.85587 6.88275 3.40687 5.23054 4.4487 3.91321C5.92358 2.02508 8.10541 0.963458 10.4646 0.963458ZM8.55666 5.70237C8.30652 5.70258 8.0667 5.8021 7.8899 5.97905C7.7131 6.156 7.61379 6.3959 7.61379 6.64604C7.61368 6.77003 7.63801 6.89283 7.68539 7.00741C7.73277 7.12199 7.80226 7.22611 7.8899 7.31383C7.97754 7.40154 8.0816 7.47112 8.19615 7.51859C8.31069 7.56606 8.43346 7.5905 8.55745 7.5905C8.68138 7.5904 8.80407 7.56588 8.91852 7.51836C9.03297 7.47084 9.13694 7.40125 9.22449 7.31355C9.31205 7.22584 9.38147 7.12176 9.4288 7.00723C9.47613 6.8927 9.50043 6.76997 9.50033 6.64604C9.50033 6.39577 9.40091 6.15574 9.22393 5.97877C9.04696 5.8018 8.80694 5.70237 8.55666 5.70237ZM14.2598 5.70237C14.0096 5.70237 13.7695 5.8018 13.5926 5.97877C13.4156 6.15574 13.3162 6.39577 13.3162 6.64604C13.3161 6.77003 13.3404 6.89283 13.3878 7.00741C13.4351 7.12199 13.5046 7.22611 13.5923 7.31383C13.6799 7.40154 13.784 7.47112 13.8985 7.51859C14.0131 7.56606 14.1358 7.5905 14.2598 7.5905C14.3838 7.5905 14.5066 7.56606 14.6211 7.51859C14.7357 7.47112 14.8397 7.40154 14.9274 7.31383C15.015 7.22611 15.0845 7.12199 15.1319 7.00741C15.1793 6.89283 15.2036 6.77003 15.2035 6.64604C15.2035 6.39577 15.1041 6.15574 14.9271 5.97877C14.7501 5.8018 14.5101 5.70237 14.2598 5.70237ZM8.4197 9.47783C8.34028 9.47723 8.26199 9.49669 8.19209 9.5344C8.12218 9.57212 8.06293 9.62687 8.01983 9.69358C7.97672 9.76029 7.95115 9.83681 7.94549 9.91603C7.93984 9.99526 7.95427 10.0746 7.98745 10.1468C8.29556 10.7989 8.78244 11.3502 9.3915 11.7366C10.0006 12.123 10.7068 12.3286 11.428 12.3294C12.1503 12.3328 12.8584 12.129 13.4684 11.7422C14.0784 11.3553 14.5646 10.8016 14.8694 10.1468C14.9026 10.0746 14.9171 9.99512 14.9114 9.91583C14.9057 9.83654 14.88 9.75998 14.8368 9.69324C14.7936 9.62651 14.7343 9.57177 14.6643 9.53412C14.5943 9.49646 14.5159 9.4771 14.4364 9.47783H14.4166C14.3282 9.47752 14.2418 9.50356 14.1683 9.55264C14.0948 9.60172 14.0377 9.67159 14.0041 9.75333C13.7741 10.2419 13.4097 10.6549 12.9534 10.9439C12.4972 11.2328 11.9681 11.3858 11.428 11.385C10.888 11.3857 10.3589 11.2327 9.90273 10.9438C9.44651 10.6548 9.08204 10.2419 8.85195 9.75333C8.81091 9.67313 8.74922 9.60532 8.67324 9.55689C8.59726 9.50846 8.50974 9.48117 8.4197 9.47783Z" fill="#621120"/>
</g>
<defs>
<clipPath id="clip0_27_119">
<rect width="19" height="19" fill="white"/>
</clipPath>
</defs>
</svg>
